<?xml version="1.0" encoding="UTF-8" standalone="no"?>
<!DOCTYPE svg PUBLIC "-//W3C//DTD SVG 1.1//EN" "http://www.w3.org/Graphics/SVG/1.1/DTD/svg11.dtd">
<svg width="100%" height="100%" viewBox="0 0 703 830" version="1.1" xmlns="http://www.w3.org/2000/svg" xmlns:xlink="http://www.w3.org/1999/xlink" xml:space="preserve" xmlns:serif="http://www.serif.com/" style="fill-rule:evenodd;clip-rule:evenodd;stroke-linejoin:round;stroke-miterlimit:2;">
    <g id="g14" transform="matrix(1,0,0,1,-40.1907,-168.304)">
        <path id="path5" d="M741.918,639.379L655.72,490.079L511.409,886.57L741.918,639.379Z" style="fill-rule:nonzero;"/>
        <path id="path6" d="M405.204,997.321L488.354,899.053L537.488,778.109L458.118,642.046L363.63,883.935L405.204,997.321Z" style="fill-rule:nonzero;"/>
        <path id="path7" d="M352.291,865.038L443,615.589L424.102,589.132L258.083,602.36L352.291,865.038Z" style="fill-rule:nonzero;"/>
        <path id="path8" d="M545.047,358.581L560.165,702.518L650.874,460.628L545.047,358.581Z" style="fill-rule:nonzero;"/>
        <path id="path9" d="M529.312,343.408L547.042,746.775L435.441,577.794L529.312,343.408Z" style="fill-rule:nonzero;"/>
        <path id="path10" d="M399.314,570.234L284.26,434.172L102.842,581.573L118.892,604.042L399.314,570.234Z" style="fill-rule:nonzero;"/>
        <path id="path11" d="M231.346,449.29L178.433,460.628L41.066,526.604L87.724,570.234L231.346,449.29Z" style="fill-rule:nonzero;"/>
        <path id="path12" d="M406.899,548.419L288.039,411.494L186.626,446.949L246.464,366.14L394.344,314.441L406.899,548.419Z" style="fill-rule:nonzero;"/>
        <path id="path13" d="M386.307,298.109L270.425,338.621L276.7,169.605L386.307,298.109Z" style="fill-rule:nonzero;"/>
        <path id="path14" d="M426.216,559.619L519.288,318.365L412.763,180.943L426.216,559.619Z" style="fill-rule:nonzero;"/>
    </g>
</svg>
